HIERARCHY
ROOT Model
{
	OFFSET 0 0 0
	CHANNELS 6 Xposition Yposition Zposition Zrotation Xrotation Yrotation
	JOINT Model1
	{
		OFFSET 0 -2.25479 2.99383
		CHANNELS 3 Zrotation Xrotation Yrotation
		JOINT Model2
		{
			OFFSET 12.111 0 0
			CHANNELS 3 Zrotation Xrotation Yrotation
			JOINT Model3
			{
				OFFSET 11.5502 0 0
				CHANNELS 3 Zrotation Xrotation Yrotation
				JOINT Model4
				{
					OFFSET 11.781 0 0
					CHANNELS 3 Zrotation Xrotation Yrotation
					JOINT Model5
					{
						OFFSET 20.0601 0 0
						CHANNELS 3 Zrotation Xrotation Yrotation
						JOINT Model6
						{
							OFFSET 11.1962 0 0
							CHANNELS 3 Zrotation Xrotation Yrotation
							End Site
							{
								OFFSET 0 0 0
							}
						}
					}
					JOINT Model7
					{
						OFFSET 10.8223 0.417538 3.51114
						CHANNELS 3 Zrotation Xrotation Yrotation
						JOINT Model8
						{
							OFFSET -6.07943 0 0
							CHANNELS 3 Zrotation Xrotation Yrotation
							JOINT Model9
							{
								OFFSET -0.277412 10.39 -0.0512428
								CHANNELS 3 Zrotation Xrotation Yrotation
								JOINT Model10
								{
									OFFSET -3.4391 -0.282043 1.86678
									CHANNELS 3 Zrotation Xrotation Yrotation
									JOINT Model11
									{
										OFFSET 13.0269 0 0
										CHANNELS 3 Zrotation Xrotation Yrotation
										JOINT Model12
										{
											OFFSET 10.8866 0 0
											CHANNELS 3 Zrotation Xrotation Yrotation
											JOINT Model13
											{
												OFFSET 16.7317 0 0
												CHANNELS 3 Zrotation Xrotation Yrotation
												JOINT Model14
												{
													OFFSET 11.8292 0 0
													CHANNELS 3 Zrotation Xrotation Yrotation
													JOINT Model15
													{
														OFFSET 4.82751 -3.73566 -0.836517
														CHANNELS 3 Zrotation Xrotation Yrotation
														JOINT Model16
														{
															OFFSET 3.75311 -0.0582924 -0.0186462
															CHANNELS 3 Zrotation Xrotation Yrotation
															JOINT Model17
															{
																OFFSET 2.88689 0.0192337 0.014801
																CHANNELS 3 Zrotation Xrotation Yrotation
																End Site
																{
																	OFFSET 0 0 0
																}
															}
														}
													}
													JOINT Model18
													{
														OFFSET 9.72198 -3.06458 0.238766
														CHANNELS 3 Zrotation Xrotation Yrotation
														JOINT Model19
														{
															OFFSET 4.61131 0 0
															CHANNELS 3 Zrotation Xrotation Yrotation
															JOINT Model20
															{
																OFFSET 2.8969 -1.14441e-005 0
																CHANNELS 3 Zrotation Xrotation Yrotation
																End Site
																{
																	OFFSET 0 0 0
																}
															}
														}
													}
													JOINT Model21
													{
														OFFSET 9.5443 -0.745064 0.588936
														CHANNELS 3 Zrotation Xrotation Yrotation
														JOINT Model22
														{
															OFFSET 5.33978 0 0
															CHANNELS 3 Zrotation Xrotation Yrotation
															JOINT Model23
															{
																OFFSET 3.03619 1.14441e-005 0
																CHANNELS 3 Zrotation Xrotation Yrotation
																End Site
																{
																	OFFSET 0 0 0
																}
															}
														}
													}
													JOINT Model24
													{
														OFFSET 9.47759 1.51286 0.485119
														CHANNELS 3 Zrotation Xrotation Yrotation
														JOINT Model25
														{
															OFFSET 4.96136 1.14441e-005 0
															CHANNELS 3 Zrotation Xrotation Yrotation
															JOINT Model26
															{
																OFFSET 2.51965 0 0
																CHANNELS 3 Zrotation Xrotation Yrotation
																End Site
																{
																	OFFSET 0 0 0
																}
															}
														}
													}
													JOINT Model27
													{
														OFFSET 9.34248 3.34117 -0.239281
														CHANNELS 3 Zrotation Xrotation Yrotation
														JOINT Model28
														{
															OFFSET 3.28259 2.67029e-005 0
															CHANNELS 3 Zrotation Xrotation Yrotation
															JOINT Model29
															{
																OFFSET 2.1292 0 0
																CHANNELS 3 Zrotation Xrotation Yrotation
																End Site
																{
																	OFFSET 0 0 0
																}
															}
														}
													}
												}
											}
										}
									}
								}
							}
						}
					}
					JOINT Model30
					{
						OFFSET 10.8223 0.417904 -3.51107
						CHANNELS 3 Zrotation Xrotation Yrotation
						JOINT Model31
						{
							OFFSET 6.07943 0 0
							CHANNELS 3 Zrotation Xrotation Yrotation
							JOINT Model32
							{
								OFFSET 0.277412 -10.39 0.0512428
								CHANNELS 3 Zrotation Xrotation Yrotation
								JOINT Model33
								{
									OFFSET 3.4391 0.282043 -1.86678
									CHANNELS 3 Zrotation Xrotation Yrotation
									JOINT Model34
									{
										OFFSET -13.0269 0 0
										CHANNELS 3 Zrotation Xrotation Yrotation
										JOINT Model35
										{
											OFFSET -10.8866 0 0
											CHANNELS 3 Zrotation Xrotation Yrotation
											JOINT Model36
											{
												OFFSET -16.7317 0 0
												CHANNELS 3 Zrotation Xrotation Yrotation
												JOINT Model37
												{
													OFFSET -11.8292 0 0
													CHANNELS 3 Zrotation Xrotation Yrotation
													JOINT Model38
													{
														OFFSET -4.82751 3.73566 0.836517
														CHANNELS 3 Zrotation Xrotation Yrotation
														JOINT Model39
														{
															OFFSET -3.75311 0.0582848 0.0186424
															CHANNELS 3 Zrotation Xrotation Yrotation
															JOINT Model40
															{
																OFFSET -2.88688 -0.0192375 -0.014801
																CHANNELS 3 Zrotation Xrotation Yrotation
																End Site
																{
																	OFFSET 0 0 0
																}
															}
														}
													}
													JOINT Model41
													{
														OFFSET -9.72197 3.06459 -0.23877
														CHANNELS 3 Zrotation Xrotation Yrotation
														JOINT Model42
														{
															OFFSET -4.6113 0 0
															CHANNELS 3 Zrotation Xrotation Yrotation
															JOINT Model43
															{
																OFFSET -2.8969 0 0
																CHANNELS 3 Zrotation Xrotation Yrotation
																End Site
																{
																	OFFSET 0 0 0
																}
															}
														}
													}
													JOINT Model44
													{
														OFFSET -9.5443 0.745064 -0.58894
														CHANNELS 3 Zrotation Xrotation Yrotation
														JOINT Model45
														{
															OFFSET -5.33978 0 0
															CHANNELS 3 Zrotation Xrotation Yrotation
															JOINT Model46
															{
																OFFSET -3.03619 -1.52588e-005 0
																CHANNELS 3 Zrotation Xrotation Yrotation
																End Site
																{
																	OFFSET 0 0 0
																}
															}
														}
													}
													JOINT Model47
													{
														OFFSET -9.47759 -1.51286 -0.485123
														CHANNELS 3 Zrotation Xrotation Yrotation
														JOINT Model48
														{
															OFFSET -4.96136 -1.52588e-005 0
															CHANNELS 3 Zrotation Xrotation Yrotation
															JOINT Model49
															{
																OFFSET -2.51966 0 0
																CHANNELS 3 Zrotation Xrotation Yrotation
																End Site
																{
																	OFFSET 0 0 0
																}
															}
														}
													}
													JOINT Model50
													{
														OFFSET -9.34246 -3.34118 0.239277
														CHANNELS 3 Zrotation Xrotation Yrotation
														JOINT Model51
														{
															OFFSET -3.2826 -1.90735e-005 0
															CHANNELS 3 Zrotation Xrotation Yrotation
															JOINT Model52
															{
																OFFSET -2.1292 0 0
																CHANNELS 3 Zrotation Xrotation Yrotation
																End Site
																{
																	OFFSET 0 0 0
																}
															}
														}
													}
												}
											}
										}
									}
								}
							}
						}
					}
				}
			}
		}
	}
	JOINT Model53
	{
		OFFSET 4.38026 -2.14632 -1.11516
		CHANNELS 3 Zrotation Xrotation Yrotation
		JOINT Model54
		{
			OFFSET 0 0 4.94999
			CHANNELS 3 Zrotation Xrotation Yrotation
			JOINT Model55
			{
				OFFSET 18.5642 0 0
				CHANNELS 3 Zrotation Xrotation Yrotation
				JOINT Model56
				{
					OFFSET 21.2884 0 1.14441e-005
					CHANNELS 3 Zrotation Xrotation Yrotation
					JOINT Model57
					{
						OFFSET 30.261 0 0
						CHANNELS 3 Zrotation Xrotation Yrotation
						JOINT Model58
						{
							OFFSET 11.7259 0 0
							CHANNELS 3 Zrotation Xrotation Yrotation
							JOINT Model59
							{
								OFFSET 10.682 0 0
								CHANNELS 3 Zrotation Xrotation Yrotation
								End Site
								{
									OFFSET 0 0 0
								}
							}
						}
					}
				}
			}
		}
	}
	JOINT Model60
	{
		OFFSET -4.38026 -2.14632 -1.11516
		CHANNELS 3 Zrotation Xrotation Yrotation
		JOINT Model61
		{
			OFFSET 0 0 -4.94999
			CHANNELS 3 Zrotation Xrotation Yrotation
			JOINT Model62
			{
				OFFSET -18.5642 0 0
				CHANNELS 3 Zrotation Xrotation Yrotation
				JOINT Model63
				{
					OFFSET -21.2884 0 -1.14441e-005
					CHANNELS 3 Zrotation Xrotation Yrotation
					JOINT Model64
					{
						OFFSET -30.261 0 0
						CHANNELS 3 Zrotation Xrotation Yrotation
						JOINT Model65
						{
							OFFSET -11.7259 0 0
							CHANNELS 3 Zrotation Xrotation Yrotation
							JOINT Model66
							{
								OFFSET -10.682 0 0
								CHANNELS 3 Zrotation Xrotation Yrotation
								End Site
								{
									OFFSET 0 0 0
								}
							}
						}
					}
				}
			}
		}
	}
}
MOTION
Frames: 4
Frame Time: 0.033333
42.1823 126.723 49.3005 -109.463 -29.1272 -110.916 -180 -6.53164e-013 -90 11.7742 0.805786 -5.25726 23.5728 0.519542 -10.5684 23.5728 0.519942 -10.5686 -32.6611 5.4301 14.0793 8.65505 12.1784 -7.40453 120.092 75.5343 58.4939 19.1134 -33.1343 -7.82486 -167.277 84.4999 48.8109 142.108 -35.2726 17.0713 1.39882e-005 -33.1872 2.20133e-005 -129.03 1.3603 0.473351 3.46066e-007 2.44992 2.57358e-007 4.23124 1.80785 46.2552 -72.0648 39.0385 39.3397 33.3638 2.10362 14.835 0.588947 0.308273 6.35287 -99.6409 81.413 100.35 -0.0181409 2.77876e-005 -0.117315 -0.124139 0.00241113 -0.799296 -79.8382 79.5773 80.5374 -0.000225775 -0.000220914 2.22129e-005 -0.000956225 0.000122907 -2.72958e-005 -66.7416 80.4058 67.2171 -0.00043713 1.59543e-005 -2.73024e-005 -0.000136601 -0.000109279 -5.46168e-005 -6.42159 81.2158 8.01779 -0.000218563 1.69119e-005 0.000212158 0.000901589 -0.000184796 -0.000218541 -59.9282 75.5373 58.5147 19.7203 5.11671 -2.24798 -167.277 84.4999 48.8109 101.275 -16.6148 13.0518 8.28043e-006 -2.34795 2.86935e-005 -135.573 0.184455 0.426342 -3.23619e-007 0.861071 1.03559e-007 -0.0525891 0.00247542 -5.38853 -72.0648 39.0385 39.3397 33.3638 2.10361 14.835 0.588946 0.308273 6.35287 -99.6409 81.413 100.35 -0.0181409 3.00308e-005 -0.117315 -0.124139 0.00241107 -0.799296 -79.8382 79.5773 80.5374 -0.000260608 -0.000218612 2.35542e-005 -0.000956175 0.000122934 -2.73427e-005 -66.7416 80.4058 67.2171 -0.000437094 1.48347e-005 -2.73371e-005 -0.000136552 -0.000109346 -5.46637e-005 -6.42159 81.2158 8.01779 -0.000218525 1.95279e-005 0.000212282 0.000901638 -0.000191314 -0.000218585 0.00081454 0.56661 89.91 -12.8521 -16.091 -19.6637 -4.19858e-006 -11.1443 -4.31781e-007 57.5803 6.97726 -0.00714511 2.61576e-007 10.3637 3.53613e-007 -56.9608 5.11832 -3.96007 -49.6626 -8.52239 -2.45024 -180 -0.566576 -90.09 -17.5278 -9.74105 -27.227 7.03173e-007 1.87099 -2.77821e-009 63.8816 11.5375 -0.00759379 6.37439e-007 17.1966 1.04681e-006 -82.4743 10.6233 -5.51654 -35.4947 4.3964e-007 2.44308e-007 
42.0696 126.677 48.8943 -109.864 -30.014 -111.955 -180 -6.53164e-013 -90 11.9855 0.830202 -5.34009 23.9964 0.530945 -10.7363 23.9964 0.531344 -10.7364 -33.0165 4.36551 15.1906 8.68688 11.7954 -8.30003 120.092 75.5343 58.4939 20.1423 -32.7667 -7.61226 -167.277 84.4999 48.8109 143.156 -34.1289 22.7569 1.32525e-005 -31.5554 2.16194e-005 -128.754 1.72745 0.475294 3.43622e-007 2.99335 2.57474e-007 4.4729 1.91285 46.2911 -72.0648 39.0385 39.3397 33.3638 2.10362 14.835 0.588947 0.308273 6.35287 -99.6409 81.413 100.35 -0.0181409 2.77876e-005 -0.117315 -0.124139 0.00241113 -0.799296 -79.8382 79.5773 80.5374 -0.000225775 -0.000220914 2.22129e-005 -0.000956225 0.000122907 -2.72958e-005 -66.7416 80.4058 67.2171 -0.00043713 1.59543e-005 -2.73024e-005 -0.000136601 -0.000109279 -5.46168e-005 -6.42159 81.2158 8.01779 -0.000218563 1.69119e-005 0.000212158 0.000901589 -0.000184796 -0.000218541 -59.9282 75.5373 58.5147 18.9647 4.92346 -2.12125 -167.277 84.4999 48.8109 102.106 -16.7119 13.7175 8.18194e-006 -2.15141 2.86896e-005 -136.225 0.261945 0.421366 -3.23862e-007 0.994991 1.03563e-007 -0.0525891 0.00247542 -5.38853 -72.0648 39.0385 39.3397 33.3638 2.10361 14.835 0.588946 0.308273 6.35287 -99.6409 81.413 100.35 -0.0181409 3.00308e-005 -0.117315 -0.124139 0.00241107 -0.799296 -79.8382 79.5773 80.5374 -0.000260608 -0.000218612 2.35542e-005 -0.000956175 0.000122934 -2.73427e-005 -66.7416 80.4058 67.2171 -0.000437094 1.48347e-005 -2.73371e-005 -0.000136552 -0.000109346 -5.46637e-005 -6.42159 81.2158 8.01779 -0.000218525 1.95279e-005 0.000212282 0.000901638 -0.000191314 -0.000218585 0.00081454 0.56661 89.91 -16.3798 -17.0227 -22.3253 -4.20513e-006 -11.9945 -4.33095e-007 58.9854 9.04332 -0.00734364 2.41929e-007 13.4611 3.5767e-007 -37.8532 -0.958705 1.23154 -68.6186 1.02818 -1.98943 -180 -0.566576 -90.09 -17.7664 -10.5395 -28.6406 7.03153e-007 1.44417 -2.77761e-009 64.2039 12.2094 -0.00764646 6.1806e-007 18.2043 1.0527e-006 -82.3644 11.662 -5.93299 -35.4947 -5.24759e-007 -4.35308e-007 
41.9389 127.49 48.8181 -110.5 -30.9215 -112.975 -180 -6.53164e-013 -90 12.2291 0.892543 -5.34074 24.4884 0.630887 -10.7495 24.4884 0.631285 -10.7497 -32.5108 3.62329 15.7218 8.05079 11.3525 -9.04455 120.092 75.5343 58.4939 20.5568 -32.3559 -7.48922 -167.277 84.4999 48.8109 145.47 -31.6774 30.6228 1.18732e-005 -28.3361 2.09306e-005 -128.778 2.22236 0.475302 3.40277e-007 3.73626 2.5767e-007 3.6132 1.52806 45.837 -72.0648 39.0385 39.3397 33.3638 2.10362 14.835 0.588947 0.308273 6.35287 -99.6409 81.413 100.35 -0.0181409 2.77876e-005 -0.117315 -0.124139 0.00241113 -0.799296 -79.8382 79.5773 80.5374 -0.000225775 -0.000220914 2.22129e-005 -0.000956225 0.000122907 -2.72958e-005 -66.7416 80.4058 67.2171 -0.00043713 1.59543e-005 -2.73024e-005 -0.000136601 -0.000109279 -5.46168e-005 -6.42159 81.2158 8.01779 -0.000218563 1.69119e-005 0.000212158 0.000901589 -0.000184796 -0.000218541 -59.9282 75.5373 58.5147 18.2668 4.75249 -2.00508 -167.277 84.4999 48.8109 104.562 -16.3145 15.2517 7.52251e-006 -0.834489 2.86724e-005 -136.397 0.664357 0.420093 -3.24961e-007 1.60321 1.03588e-007 -0.0525891 0.00247542 -5.38853 -72.0648 39.0385 39.3397 33.3638 2.10361 14.835 0.588946 0.308273 6.35287 -99.6409 81.413 100.35 -0.0181409 3.00308e-005 -0.117315 -0.124139 0.00241107 -0.799296 -79.8382 79.5773 80.5374 -0.000260608 -0.000218612 2.35542e-005 -0.000956175 0.000122934 -2.73427e-005 -66.7416 80.4058 67.2171 -0.000437094 1.48347e-005 -2.73371e-005 -0.000136552 -0.000109346 -5.46637e-005 -6.42159 81.2158 8.01779 -0.000218525 1.95279e-005 0.000212282 0.000901638 -0.000191314 -0.000218585 0.00081454 0.56661 89.91 -20.2945 -17.3504 -25.4507 -4.20548e-006 -12.0391 -4.33167e-007 62.1565 9.21793 -0.00747869 2.40269e-007 13.7194 3.5806e-007 -29.1068 -5.07953 6.38527 -65.1044 7.28764 1.17903 -180 -0.566576 -90.09 -16.9462 -12.5189 -30.6096 7.03085e-007 0.0585233 -2.77673e-009 62.1368 12.59 0.0301503 6.06941e-007 18.7773 1.05623e-006 -81.2346 11.7104 -6.0511 -35.4947 -9.83161e-007 -7.86364e-007 
41.9174 128.857 49.181 -110.677 -31.2876 -113.347 -180 -6.53164e-013 -90 12.3517 0.947506 -5.2766 24.7386 0.741494 -10.634 24.7386 0.741891 -10.6342 -31.6365 3.68598 15.2835 7.22293 11.134 -9.1927 120.092 75.5343 58.4939 20.0627 -32.09 -7.5182 -167.277 84.4999 48.8109 148.738 -28.3906 37.8899 1.03404e-005 -24.5158 2.02481e-005 -129.235 2.8723 0.472514 3.35824e-007 4.72307 2.57999e-007 2.44579 1.03964 46.0532 -72.0648 39.0385 39.3397 33.3638 2.10362 14.835 0.588947 0.308273 6.35287 -99.6409 81.413 100.35 -0.0181409 2.77876e-005 -0.117315 -0.124139 0.00241113 -0.799296 -79.8382 79.5773 80.5374 -0.000225775 -0.000220914 2.22129e-005 -0.000956225 0.000122907 -2.72958e-005 -66.7416 80.4058 67.2171 -0.00043713 1.59543e-005 -2.73024e-005 -0.000136601 -0.000109279 -5.46168e-005 -6.42159 81.2158 8.01779 -0.000218563 1.69119e-005 0.000212158 0.000901589 -0.000184796 -0.000218541 -59.9282 75.5373 58.5147 18.0472 4.8428 -1.94772 -167.277 84.4999 48.8109 107.381 -15.5731 17.1366 6.57127e-006 1.06637 2.86743e-005 -135.841 1.19923 0.424446 -3.26386e-007 2.39036 1.03638e-007 -0.0525891 0.00247542 -5.38853 -72.0648 39.0385 39.3397 33.3638 2.10361 14.835 0.588946 0.308273 6.35287 -99.6409 81.413 100.35 -0.0181409 3.00308e-005 -0.117315 -0.124139 0.00241107 -0.799296 -79.8382 79.5773 80.5374 -0.000260608 -0.000218612 2.35542e-005 -0.000956175 0.000122934 -2.73427e-005 -66.7416 80.4058 67.2171 -0.000437094 1.48347e-005 -2.73371e-005 -0.000136552 -0.000109346 -5.46637e-005 -6.42159 81.2158 8.01779 -0.000218525 1.95279e-005 0.000212282 0.000901638 -0.000191314 -0.000218585 0.00081454 0.56661 89.91 -22.5395 -17.6438 -27.5552 -4.20675e-006 -12.204 -4.33435e-007 62.4746 8.80444 -0.00749375 2.44251e-007 13.0988 3.57136e-007 -25.6697 -6.07283 8.09605 -55.5105 8.57849 0.922829 -180 -0.566576 -90.09 -15.5745 -14.5168 -32.516 7.03031e-007 -1.06406 -2.7772e-009 58.0847 12.325 1.65742 6.14434e-007 18.3916 1.05384e-006 -79.2308 10.9078 -5.88758 -35.4947 3.29427e-007 1.25359e-008 
